<?xml version="1.0" standalone="no"?>
<!DOCTYPE svg PUBLIC "-//W3C//DTD SVG 20010904//EN"
 "http://www.w3.org/TR/2001/REC-SVG-20010904/DTD/svg10.dtd">
<svg version="1.0" xmlns="http://www.w3.org/2000/svg"
 width="424.000000pt" height="424.000000pt" viewBox="0 0 424.000000 424.000000"
 preserveAspectRatio="xMidYMid meet">
<metadata>
Created by potrace 1.11, written by Peter Selinger 2001-2013
</metadata>
<g transform="translate(0.000000,424.000000) scale(0.100000,-0.100000)"
fill="#000000" stroke="none">
<path d="M1975 2893 c-251 -43 -423 -225 -491 -520 -15 -65 -14 -338 1 -427
45 -262 200 -452 425 -521 87 -27 262 -29 352 -4 229 64 385 243 439 504 17
84 19 341 2 428 -72 390 -361 604 -728 540z m211 -252 c102 -27 188 -143 212
-285 9 -54 8 -372 -1 -416 -39 -184 -129 -278 -275 -288 -74 -5 -141 10 -189
43 -75 50 -135 173 -151 305 -15 135 1 402 27 435 5 5 11 22 14 36 9 37 71
114 114 140 70 44 159 54 249 30z"/>
<path d="M146 2870 c-2 -8 -4 -338 -4 -733 l1 -718 151 3 151 3 1 250 c1 138
2 252 3 255 0 3 81 6 179 7 197 1 217 3 317 34 136 42 242 135 287 251 27 70
30 90 30 173 0 102 -12 156 -55 238 -64 122 -206 216 -368 243 -24 4 -189 8
-366 9 -283 1 -323 -1 -327 -15z m658 -242 c46 -16 93 -54 123 -101 38 -61 42
-165 8 -233 -27 -53 -68 -87 -127 -102 -21 -6 -111 -11 -200 -11 l-163 -2 0
231 0 231 164 -2 c90 0 177 -6 195 -11z"/>
<path d="M2983 2883 c-6 -2 -9 -1272 -4 -1441 l1 -23 269 1 c231 1 282 4 352
21 222 53 384 203 457 424 29 85 34 123 37 266 3 153 -8 232 -47 337 -79 215
-272 371 -503 409 -32 5 -547 11 -562 6z m612 -279 c79 -39 137 -110 167 -207
20 -64 23 -92 23 -247 -1 -195 -11 -248 -67 -336 -71 -113 -137 -144 -320
-150 -112 -4 -118 -3 -118 16 0 11 0 184 0 385 0 201 0 413 0 471 l0 107 128
-5 c116 -4 133 -7 187 -34z"/>
<path d="M10 875 l0 -125 2110 0 2110 0 0 125 0 125 -2110 0 -2110 0 0 -125z"/>
</g>
</svg>
