<?xml version="1.0" standalone="no"?>
<!DOCTYPE svg PUBLIC "-//W3C//DTD SVG 20010904//EN"
 "http://www.w3.org/TR/2001/REC-SVG-20010904/DTD/svg10.dtd">
<svg version="1.0" xmlns="http://www.w3.org/2000/svg"
 width="854.000000pt" height="854.000000pt" viewBox="0 0 854.000000 854.000000"
 preserveAspectRatio="xMidYMid meet">
<metadata>
Created by potrace 1.11, written by Peter Selinger 2001-2013
</metadata>
<g transform="translate(0.000000,854.000000) scale(0.100000,-0.100000)"
fill="#000000" stroke="none">
<path d="M4335 7636 c-93 -14 -162 -24 -205 -31 -14 -2 -45 -6 -70 -10 -25 -3
-56 -8 -70 -10 -14 -3 -45 -8 -70 -11 -73 -10 -88 -12 -127 -18 -21 -3 -58 -8
-83 -11 -25 -3 -52 -8 -60 -10 -8 -2 -37 -7 -65 -10 -27 -3 -61 -7 -75 -10
-14 -3 -45 -8 -70 -11 -25 -3 -87 -12 -138 -20 -51 -8 -114 -12 -140 -9 -124
17 -264 -4 -377 -55 -22 -10 -62 -21 -90 -24 -88 -11 -129 -17 -190 -26 -33
-5 -78 -12 -100 -15 -22 -3 -56 -8 -75 -11 -35 -7 -46 -8 -130 -18 -25 -3 -56
-8 -70 -11 -14 -3 -41 -7 -60 -10 -94 -12 -141 -26 -222 -66 -149 -71 -278
-210 -338 -362 -17 -43 25 -21 -460 -238 -135 -60 -254 -114 -265 -119 -234
-105 -277 -131 -364 -218 -141 -141 -201 -279 -207 -477 -3 -129 10 -191 80
-357 24 -60 41 -108 38 -108 -4 0 -2 -4 3 -8 14 -9 67 -132 57 -132 -4 0 -2
-4 4 -8 17 -11 66 -141 58 -154 -4 -6 -3 -8 4 -4 13 8 26 -29 16 -45 -4 -7 -3
-9 3 -6 5 3 20 -17 32 -46 25 -57 43 -97 50 -111 2 -5 -1 -6 -7 -2 -6 3 -14 2
-17 -4 -4 -6 -3 -10 2 -9 23 4 33 -4 44 -38 7 -21 11 -40 10 -42 -2 -2 1 -7 6
-10 5 -3 14 -19 21 -34 10 -23 10 -27 0 -21 -7 4 -2 -5 11 -19 17 -19 20 -27
10 -27 -11 -1 -10 -3 2 -10 14 -8 34 -56 29 -69 -1 -2 4 -8 12 -12 11 -8 11
-10 0 -18 -10 -6 -8 -10 9 -14 13 -4 20 -9 16 -13 -3 -3 3 -25 15 -48 11 -22
20 -42 19 -44 -1 -1 5 -15 13 -30 8 -15 16 -36 18 -47 1 -11 7 -23 11 -26 5
-3 9 -13 11 -21 1 -9 7 -22 13 -29 6 -8 11 -18 12 -24 0 -5 10 -32 22 -60 11
-27 28 -65 35 -83 8 -18 11 -39 7 -45 -11 -18 -12 -38 -2 -31 5 3 7 9 4 14 -3
5 -1 11 4 14 5 3 14 -8 20 -24 5 -17 7 -30 3 -30 -4 0 -2 -4 3 -8 6 -4 21 -32
34 -62 13 -30 30 -68 37 -85 7 -16 10 -33 8 -37 -3 -4 -2 -8 3 -8 11 0 35 -55
37 -85 0 -13 4 -21 7 -19 7 4 26 -37 31 -66 2 -8 9 -21 16 -29 7 -7 11 -20 8
-27 -3 -8 -1 -14 5 -14 6 0 7 -4 4 -10 -3 -5 -1 -10 5 -10 6 0 9 -4 6 -9 -4
-5 -1 -11 4 -13 6 -2 12 -10 14 -18 1 -8 10 -33 20 -55 14 -33 15 -44 5 -60
-11 -18 -11 -19 4 -6 15 12 18 10 26 -10 5 -13 7 -27 4 -31 -2 -5 1 -8 6 -8 6
0 11 -5 11 -11 0 -6 10 -32 23 -58 13 -25 23 -56 22 -68 -1 -13 1 -21 4 -18 7
7 60 -108 54 -117 -2 -5 0 -8 5 -8 8 0 26 -46 23 -57 0 -2 8 -19 19 -39 11
-19 18 -39 15 -45 -4 -5 -2 -9 3 -9 14 0 35 -57 26 -71 -4 -7 -3 -10 3 -6 9 6
103 -201 103 -228 0 -7 5 -15 11 -17 6 -2 12 -16 12 -31 1 -15 5 -27 9 -27 6
0 17 -25 19 -45 0 -5 7 -17 14 -25 7 -8 14 -19 15 -25 1 -5 8 -25 16 -44 8
-18 11 -38 7 -44 -4 -6 -1 -7 7 -2 10 6 12 3 8 -13 -4 -12 -3 -20 1 -17 10 6
33 -44 26 -56 -4 -5 -1 -9 5 -9 6 0 8 -4 5 -10 -3 -5 -1 -10 5 -10 7 0 9 -7 6
-17 -4 -10 -4 -14 0 -10 10 10 45 -83 37 -96 -3 -6 -1 -7 5 -3 7 4 12 3 12 -3
0 -6 12 -36 27 -68 14 -32 26 -64 26 -70 0 -7 4 -13 9 -13 5 0 7 -4 4 -9 -4
-5 0 -12 6 -14 10 -4 9 -8 -2 -16 -13 -9 -13 -11 1 -11 15 0 35 -42 31 -62 -1
-5 3 -8 8 -8 6 0 10 -6 10 -13 0 -7 9 -29 20 -50 11 -21 18 -42 15 -47 -3 -4
-1 -10 4 -12 10 -4 92 -198 84 -198 -3 0 4 -8 15 -19 12 -10 22 -22 22 -28 0
-22 121 -151 168 -178 18 -11 32 -22 32 -26 0 -4 21 -15 48 -25 26 -9 53 -24
60 -33 6 -8 12 -12 12 -8 0 3 21 0 48 -8 26 -8 57 -15 70 -15 12 0 22 -4 22
-8 0 -4 26 -7 58 -6 31 0 63 -4 71 -10 11 -8 13 -8 7 2 -5 8 0 12 13 12 29 0
36 -3 33 -15 -1 -5 3 -3 10 6 10 11 86 36 138 44 3 0 11 4 18 8 6 5 17 5 24 1
6 -4 8 -3 4 4 -6 10 80 50 97 44 4 -1 7 2 7 7 0 8 37 24 53 22 4 -1 7 4 7 11
0 6 3 9 6 5 3 -3 26 6 50 19 25 14 49 22 54 19 6 -3 10 -2 10 3 0 13 120 63
133 55 5 -3 7 -1 3 5 -3 6 13 18 41 28 27 10 57 23 68 30 11 7 29 14 40 16 11
2 22 6 25 9 3 4 48 26 100 48 52 23 103 47 114 52 10 6 16 6 13 1 -4 -5 4 -8
15 -7 12 1 24 8 26 16 3 12 2 12 -6 0 -7 -9 -12 -10 -16 -2 -4 6 -2 12 3 12
20 3 26 5 49 17 12 7 22 10 22 7 0 -4 7 1 16 9 8 9 21 16 27 16 6 0 1 -7 -11
-16 -12 -8 -22 -21 -22 -27 0 -7 7 -3 15 7 8 11 18 17 21 13 4 -4 1 -14 -7
-24 -8 -9 -9 -14 -2 -10 6 4 14 1 16 -5 3 -7 4 2 3 20 -4 42 20 69 57 63 4 -1
15 5 23 14 15 14 34 19 63 16 7 -2 10 2 7 8 -4 5 -1 13 5 17 7 4 9 3 5 -4 -3
-6 -2 -13 4 -17 5 -3 10 -1 10 5 0 7 7 10 15 7 8 -4 17 -2 20 3 4 6 -4 10 -16
10 -31 0 -21 7 19 13 17 3 30 2 28 -2 -4 -6 38 -9 132 -11 12 0 22 -5 22 -11
0 -6 6 -9 14 -6 7 3 36 -5 64 -18 28 -13 53 -21 56 -17 3 3 6 1 6 -4 0 -5 12
-10 26 -10 14 -1 35 -10 46 -20 14 -13 18 -14 13 -4 -7 12 -6 13 6 4 8 -6 35
-17 62 -25 26 -7 47 -17 47 -22 0 -4 4 -6 9 -3 5 3 12 -1 15 -10 5 -13 9 -14
21 -4 14 11 19 7 16 -12 0 -4 6 -5 15 -1 8 3 25 1 37 -5 12 -5 38 -15 57 -22
19 -7 44 -16 55 -20 11 -4 34 -13 50 -19 17 -6 44 -16 60 -22 35 -14 30 -13
73 -23 19 -4 29 -12 26 -18 -4 -6 -2 -8 4 -4 6 3 21 2 34 -3 13 -6 124 -47
248 -91 124 -45 293 -106 375 -137 83 -30 182 -66 220 -80 39 -14 98 -36 131
-49 282 -109 553 -56 751 147 84 86 126 157 171 294 28 83 74 217 339 985 52
151 141 410 198 575 333 969 367 1067 491 1425 41 118 76 220 78 227 1 7 5 16
9 19 4 4 7 15 7 24 0 10 9 39 20 66 10 27 42 117 70 199 28 83 84 247 125 365
40 118 76 229 80 245 4 17 9 39 11 50 9 39 5 191 -6 240 -43 192 -151 352
-303 449 -71 46 -33 31 -1019 392 -169 62 -189 71 -199 97 -34 80 -131 200
-213 261 -88 66 -230 122 -331 131 -63 6 -142 15 -175 20 -14 2 -56 6 -95 10
-38 3 -83 7 -100 10 -40 6 -104 13 -190 20 -38 3 -77 8 -85 10 -8 2 -51 7 -95
11 -44 3 -88 8 -97 9 -9 2 -48 7 -85 10 -37 4 -79 8 -93 10 -14 2 -52 6 -85
10 -150 15 -136 10 -217 88 -80 78 -186 141 -288 171 -74 23 -226 28 -335 12z"/>
<path d="M193 5585 c0 -8 4 -15 9 -15 4 0 8 4 8 9 0 6 -4 12 -8 15 -5 3 -9 -1
-9 -9z"/>
<path d="M336 5282 c-2 -4 -1 -14 4 -22 7 -11 9 -9 7 8 -1 24 -3 26 -11 14z"/>
<path d="M736 4362 c-3 -5 1 -9 9 -9 8 0 12 4 9 9 -3 4 -7 8 -9 8 -2 0 -6 -4
-9 -8z"/>
<path d="M774 4236 c1 -8 5 -18 8 -22 4 -3 5 1 4 10 -1 8 -5 18 -8 22 -4 3 -5
-1 -4 -10z"/>
<path d="M816 4158 c3 -5 10 -6 15 -3 13 9 11 12 -6 12 -8 0 -12 -4 -9 -9z"/>
<path d="M1030 3519 c0 -5 5 -7 10 -4 6 3 10 8 10 11 0 2 -4 4 -10 4 -5 0 -10
-5 -10 -11z"/>
<path d="M1355 2839 c-3 -4 2 -6 10 -5 21 3 28 13 10 13 -9 0 -18 -4 -20 -8z"/>
<path d="M1395 2700 c3 -5 8 -10 11 -10 2 0 4 5 4 10 0 6 -5 10 -11 10 -5 0
-7 -4 -4 -10z"/>
<path d="M1426 2622 c-3 -5 1 -9 9 -9 8 0 12 4 9 9 -3 4 -7 8 -9 8 -2 0 -6 -4
-9 -8z"/>
<path d="M1560 2360 c-12 -7 -10 -9 7 -7 12 0 19 5 17 9 -6 10 -6 10 -24 -2z"/>
<path d="M1655 2161 c-3 -5 -2 -12 3 -15 5 -3 9 1 9 9 0 17 -3 19 -12 6z"/>
<path d="M1673 2095 c0 -8 4 -12 9 -9 5 3 6 10 3 15 -9 13 -12 11 -12 -6z"/>
<path d="M1856 1722 c-3 -5 1 -9 9 -9 8 0 12 4 9 9 -3 4 -7 8 -9 8 -2 0 -6 -4
-9 -8z"/>
<path d="M4033 1713 c4 -6 0 -16 -8 -23 -8 -7 -15 -9 -15 -5 0 4 -6 3 -12 -2
-7 -6 -23 -9 -36 -8 -13 1 -25 -2 -28 -7 -3 -4 -9 -6 -14 -3 -5 3 -15 -3 -22
-14 -10 -16 -15 -18 -27 -8 -12 10 -13 9 -7 -1 6 -9 3 -12 -9 -10 -10 2 -20
-3 -22 -9 -3 -7 3 -13 12 -13 10 0 13 -5 9 -12 -4 -7 -3 -8 5 -4 6 4 8 12 5
18 -4 7 -2 8 5 4 6 -4 10 -13 9 -19 -2 -7 1 -13 6 -14 5 -1 13 -7 17 -15 6 -9
9 -9 9 -1 0 6 -4 14 -9 18 -13 7 -9 46 4 42 5 -2 9 -11 7 -21 -2 -9 2 -16 8
-16 6 0 9 4 6 9 -10 16 21 20 43 5 12 -9 21 -11 21 -5 0 6 -4 11 -10 11 -5 0
-10 4 -10 8 0 5 13 9 30 9 23 0 27 -3 19 -14 -9 -9 -7 -14 5 -19 8 -3 21 -4
28 -1 7 3 3 6 -10 6 -13 1 -21 5 -17 10 3 5 23 8 45 6 22 -2 42 1 46 6 3 5 10
6 16 3 6 -4 6 1 -1 14 -17 32 -12 39 9 13 11 -12 17 -28 13 -34 -3 -5 -1 -7 5
-3 5 3 12 3 15 -1 2 -5 2 -3 1 4 -2 6 0 14 4 16 4 2 1 2 -6 0 -8 -1 -12 2 -10
9 4 11 25 14 56 9 4 -1 0 -6 -8 -12 -12 -8 -11 -9 5 -7 11 2 19 -2 18 -9 -1
-6 5 -17 15 -25 15 -12 16 -11 3 5 -10 13 -11 17 -1 17 7 0 1 10 -14 21 -15
12 -25 24 -22 27 3 2 12 -1 20 -7 15 -13 36 -7 36 10 0 5 -5 9 -11 9 -5 0 -7
-5 -3 -11 4 -7 1 -10 -7 -7 -8 3 -13 11 -11 17 1 7 -2 10 -8 6 -6 -4 -16 -2
-23 3 -7 5 -19 10 -27 10 -8 0 -25 3 -38 6 -13 3 -20 1 -17 -5 4 -5 1 -9 -4
-9 -6 0 -11 5 -11 12 0 6 -7 3 -15 -8 -14 -18 -15 -18 -8 0 4 13 2 17 -8 14
-8 -3 -13 -13 -11 -23 2 -10 -1 -14 -7 -10 -6 3 -11 12 -11 20 0 8 -5 17 -12
21 -6 4 -8 3 -5 -3z m148 -27 c19 -1 23 -21 4 -21 -5 0 -15 -4 -21 -8 -14 -8
-38 18 -29 33 3 6 11 7 17 4 6 -4 19 -7 29 -8z m-98 -46 c4 0 7 5 7 11 0 5 -4
7 -10 4 -5 -3 -10 -2 -10 3 0 6 8 13 18 17 9 3 19 7 22 8 2 1 4 -11 5 -28 0
-29 -1 -30 -40 -27 -69 5 -80 7 -91 15 -7 4 -14 1 -17 -6 -6 -16 -43 -15 -59
1 -10 10 -6 17 5 10 2 -2 11 3 20 10 12 10 17 10 23 1 5 -8 3 -9 -6 -4 -9 6
-11 4 -5 -5 6 -10 11 -9 22 5 9 14 13 15 13 4 1 -10 3 -9 11 4 6 9 14 15 19
12 5 -3 12 0 16 6 5 9 14 4 28 -14 12 -15 25 -27 29 -27z"/>
<path d="M4025 1671 c-3 -6 -11 -8 -17 -5 -7 4 -8 2 -4 -4 4 -7 2 -12 -5 -12
-7 0 -9 -3 -6 -7 4 -3 17 2 29 13 21 19 21 19 14 -1 -6 -16 -5 -18 5 -7 9 9
10 15 2 23 -8 8 -13 8 -18 0z"/>
<path d="M3916 1638 c3 -5 10 -6 15 -3 13 9 11 12 -6 12 -8 0 -12 -4 -9 -9z"/>
<path d="M4276 1655 c-9 -26 -7 -32 5 -12 6 10 9 21 6 23 -2 3 -7 -2 -11 -11z"/>
<path d="M4295 1639 c-4 -6 -5 -12 -2 -15 2 -3 7 2 10 11 7 17 1 20 -8 4z"/>
<path d="M4315 1631 c-3 -5 -2 -12 3 -15 5 -3 9 1 9 9 0 17 -3 19 -12 6z"/>
<path d="M4379 1613 c-13 -16 -12 -17 4 -4 16 13 21 21 13 21 -2 0 -10 -8 -17
-17z"/>
<path d="M4270 1610 c0 -5 5 -10 11 -10 5 0 7 5 4 10 -3 6 -8 10 -11 10 -2 0
-4 -4 -4 -10z"/>
<path d="M4131 1603 c3 -20 -2 -27 -11 -13 -7 12 -9 10 -7 -7 1 -21 3 -21 19
-6 10 8 15 20 12 24 -6 11 -14 12 -13 2z"/>
<path d="M4200 1595 c-7 -9 -11 -17 -9 -20 3 -2 10 5 17 15 14 24 10 26 -8 5z"/>
<path d="M3833 1578 c0 -24 18 -33 32 -15 3 4 2 5 -2 2 -4 -3 -12 4 -19 16
-11 22 -11 22 -11 -3z"/>
<path d="M3937 1586 c-4 -11 -5 -21 -2 -24 3 -3 5 0 5 7 0 7 4 10 9 6 5 -3 13
0 17 6 4 7 3 9 -4 5 -5 -3 -12 -1 -14 6 -3 7 -7 5 -11 -6z"/>
<path d="M3737 1579 c7 -7 15 -10 18 -7 3 3 -2 9 -12 12 -14 6 -15 5 -6 -5z"/>
<path d="M3995 1579 c-4 -6 -4 -13 -1 -16 3 -4 6 -1 6 6 0 7 5 9 12 5 7 -4 8
-3 4 4 -9 15 -13 15 -21 1z"/>
<path d="M4155 1580 c-3 -5 -1 -10 4 -10 6 0 11 5 11 10 0 6 -2 10 -4 10 -3 0
-8 -4 -11 -10z"/>
<path d="M3719 1560 c-3 -20 -4 -25 -12 -37 -5 -9 -3 -11 6 -7 8 3 15 16 15
30 0 23 -7 34 -9 14z"/>
<path d="M3756 1555 c-11 -8 -15 -15 -9 -15 7 0 15 5 18 11 5 6 12 4 20 -8 7
-10 11 -22 8 -27 -4 -5 -1 -6 5 -2 9 5 7 14 -4 32 -9 13 -17 24 -18 24 0 0
-10 -7 -20 -15z"/>
<path d="M4253 1555 c0 -8 4 -12 9 -9 5 3 6 10 3 15 -9 13 -12 11 -12 -6z"/>
<path d="M3870 1539 c0 -5 5 -7 10 -4 6 3 10 8 10 11 0 2 -4 4 -10 4 -5 0 -10
-5 -10 -11z"/>
<path d="M4015 1540 c3 -5 8 -10 11 -10 2 0 4 5 4 10 0 6 -5 10 -11 10 -5 0
-7 -4 -4 -10z"/>
<path d="M3667 1527 c-3 -8 1 -14 8 -14 7 0 11 6 8 14 -3 7 -6 13 -8 13 -2 0
-5 -6 -8 -13z"/>
<path d="M4630 1536 c0 -2 8 -10 18 -17 15 -13 16 -12 3 4 -13 16 -21 21 -21
13z"/>
<path d="M3636 1511 c-3 -5 -22 -8 -41 -6 -19 1 -33 -1 -29 -4 11 -12 64 -8
75 5 6 8 9 14 6 14 -3 0 -8 -4 -11 -9z"/>
<path d="M3610 1459 c0 -5 5 -7 10 -4 6 3 10 8 10 11 0 2 -4 4 -10 4 -5 0 -10
-5 -10 -11z"/>
<path d="M4780 1466 c0 -2 8 -10 18 -17 15 -13 16 -12 3 4 -13 16 -21 21 -21
13z"/>
<path d="M1975 1440 c3 -5 8 -10 11 -10 2 0 4 5 4 10 0 6 -5 10 -11 10 -5 0
-7 -4 -4 -10z"/>
<path d="M3496 1427 c3 -10 9 -15 12 -12 3 3 0 11 -7 18 -10 9 -11 8 -5 -6z"/>
<path d="M3370 1420 c0 -5 5 -10 11 -10 5 0 7 5 4 10 -3 6 -8 10 -11 10 -2 0
-4 -4 -4 -10z"/>
<path d="M3393 1375 c0 -8 4 -12 9 -9 5 3 6 10 3 15 -9 13 -12 11 -12 -6z"/>
<path d="M2035 1360 c-3 -5 -1 -10 4 -10 6 0 11 5 11 10 0 6 -2 10 -4 10 -3 0
-8 -4 -11 -10z"/>
<path d="M3313 1335 c0 -8 4 -12 9 -9 5 3 6 10 3 15 -9 13 -12 11 -12 -6z"/>
<path d="M3374 1322 c4 -3 14 -7 22 -8 9 -1 13 0 10 4 -4 3 -14 7 -22 8 -9 1
-13 0 -10 -4z"/>
<path d="M3215 1309 c-4 -6 -5 -12 -2 -15 2 -3 7 2 10 11 7 17 1 20 -8 4z"/>
<path d="M2065 1299 c-3 -4 2 -6 10 -5 21 3 28 13 10 13 -9 0 -18 -4 -20 -8z"/>
<path d="M3106 1300 c5 -8 9 -18 9 -22 0 -3 3 -9 7 -13 3 -4 5 0 4 9 -1 9 -8
22 -16 29 -10 10 -11 9 -4 -3z"/>
<path d="M3153 1275 c0 -8 4 -12 9 -9 5 3 6 10 3 15 -9 13 -12 11 -12 -6z"/>
<path d="M3195 1270 c10 -11 20 -20 23 -20 3 0 -3 9 -13 20 -10 11 -20 20 -23
20 -3 0 3 -9 13 -20z"/>
<path d="M2100 1266 c0 -2 8 -10 18 -17 15 -13 16 -12 3 4 -13 16 -21 21 -21
13z"/>
<path d="M2170 1240 c0 -5 5 -10 11 -10 5 0 7 5 4 10 -3 6 -8 10 -11 10 -2 0
-4 -4 -4 -10z"/>
<path d="M3030 1241 c0 -6 4 -12 8 -15 5 -3 9 1 9 9 0 8 -4 15 -9 15 -4 0 -8
-4 -8 -9z"/>
<path d="M2977 1233 c-10 -9 -9 -23 1 -23 5 0 9 7 9 15 0 17 -1 18 -10 8z"/>
<path d="M3130 1220 c0 -5 5 -10 11 -10 5 0 7 5 4 10 -3 6 -8 10 -11 10 -2 0
-4 -4 -4 -10z"/>
<path d="M2909 1203 c-13 -16 -12 -17 4 -4 16 13 21 21 13 21 -2 0 -10 -8 -17
-17z"/>
<path d="M2285 1180 c21 -24 26 -25 19 -6 -3 8 -13 17 -22 21 -13 5 -13 2 3
-15z"/>
<path d="M2199 1133 c-13 -16 -12 -17 4 -4 16 13 21 21 13 21 -2 0 -10 -8 -17
-17z"/>
<path d="M2890 1139 c0 -5 5 -7 10 -4 6 3 10 8 10 11 0 2 -4 4 -10 4 -5 0 -10
-5 -10 -11z"/>
<path d="M2720 1120 c-9 -6 -10 -10 -3 -10 6 0 15 5 18 10 8 12 4 12 -15 0z"/>
<path d="M2930 1126 c0 -2 7 -7 16 -10 8 -3 12 -2 9 4 -6 10 -25 14 -25 6z"/>
<path d="M2534 1109 c-3 -6 -2 -15 3 -20 5 -5 9 -1 9 11 0 23 -2 24 -12 9z"/>
<path d="M2416 1098 c3 -5 10 -6 15 -3 13 9 11 12 -6 12 -8 0 -12 -4 -9 -9z"/>
<path d="M2500 1100 c-9 -6 -10 -10 -3 -10 6 0 15 5 18 10 8 12 4 12 -15 0z"/>
<path d="M2673 1095 c0 -8 4 -12 9 -9 5 3 6 10 3 15 -9 13 -12 11 -12 -6z"/>
<path d="M2755 1101 c-3 -5 -2 -12 3 -15 5 -3 9 1 9 9 0 17 -3 19 -12 6z"/>
<path d="M2846 1098 c3 -5 10 -6 15 -3 13 9 11 12 -6 12 -8 0 -12 -4 -9 -9z"/>
<path d="M2640 1075 c-7 -8 -17 -12 -23 -8 -6 4 -7 1 -3 -6 6 -9 13 -8 27 5
10 9 19 19 19 21 0 7 -8 2 -20 -12z"/>
<path d="M2480 1060 c-9 -6 -10 -10 -3 -10 6 0 15 5 18 10 8 12 4 12 -15 0z"/>
<path d="M2510 1058 c0 -4 4 -8 9 -8 6 0 12 4 15 8 3 5 -1 9 -9 9 -8 0 -15 -4
-15 -9z"/>
<path d="M2770 1060 c0 -5 5 -10 11 -10 5 0 7 5 4 10 -3 6 -8 10 -11 10 -2 0
-4 -4 -4 -10z"/>
<path d="M2710 1036 c0 -2 8 -10 18 -17 15 -13 16 -12 3 4 -13 16 -21 21 -21
13z"/>
<path d="M2470 986 c0 -2 7 -7 16 -10 8 -3 12 -2 9 4 -6 10 -25 14 -25 6z"/>
</g>
</svg>
